<?xml version="1.0" encoding="utf-8"?>
<!-- Generator: Adobe Illustrator 22.1.0, SVG Export Plug-In . SVG Version: 6.00 Build 0)  -->
<svg version="1.1" id="Layer_1" xmlns="http://www.w3.org/2000/svg" xmlns:xlink="http://www.w3.org/1999/xlink" x="0px" y="0px"
	 viewBox="0 0 23.4 17.7" style="enable-background:new 0 0 23.4 17.7;" xml:space="preserve">
<style type="text/css">
	.st0{fill:#787878;}
</style>
<g>
	<g>
		<path class="st0" d="M23.2,8.2l-5.7-5.7c-0.2-0.2-0.5-0.2-0.7,0l-1.2,1.2c-0.2,0.2-0.2,0.5,0,0.7l4.1,4.1l-4.1,4.1
			c-0.2,0.2-0.2,0.5,0,0.7l1.2,1.2c0.1,0.1,0.2,0.1,0.3,0.1c0.1,0,0.2-0.1,0.3-0.1l5.7-5.7C23.4,8.7,23.4,8.4,23.2,8.2z"/>
		<path class="st0" d="M7.8,12.7L3.6,8.5l4.1-4.1C7.9,4.3,7.9,4.2,7.9,4c0-0.1,0-0.2-0.1-0.3L6.5,2.5C6.4,2.4,6.3,2.3,6.2,2.3
			c-0.1,0-0.2,0.1-0.3,0.1L0.1,8.2C0,8.4,0,8.7,0.1,8.9l5.7,5.7c0.1,0.1,0.2,0.1,0.3,0.1c0.1,0,0.2-0.1,0.3-0.1l1.2-1.2
			C8,13.2,8,12.9,7.8,12.7z"/>
		<path class="st0" d="M15.2,0.5c-0.1-0.1-0.2-0.2-0.3-0.2L13.4,0c-0.3-0.1-0.5,0.1-0.6,0.3L8.2,16.1c0,0.1,0,0.3,0,0.4
			c0.1,0.1,0.2,0.2,0.3,0.2L10,17c0,0,0.1,0,0.1,0c0.2,0,0.4-0.1,0.5-0.3l4.7-15.8C15.2,0.8,15.2,0.7,15.2,0.5z"/>
	</g>
</g>
</svg>
